<!DOCTYPE svg PUBLIC "-//W3C//DTD SVG 1.1//EN" "http://www.w3.org/Graphics/SVG/1.1/DTD/svg11.dtd">
<!-- Uploaded to: SVG Repo, www.svgrepo.com, Transformed by: SVG Repo Mixer Tools -->
<svg fill="#000000" width="800px" height="800px" viewBox="-5.76 -5.76 43.52 43.52" xmlns="http://www.w3.org/2000/svg">
<g id="SVGRepo_bgCarrier" stroke-width="0"/>
<g id="SVGRepo_tracerCarrier" stroke-linecap="round" stroke-linejoin="round" stroke="#f7f7f7" stroke-width="3.2"> <path d="M16,32A16,16,0,1,0,0,16,16,16,0,0,0,16,32ZM16,2A14,14,0,1,1,2,16,14,14,0,0,1,16,2Z"/> </g>
<g id="SVGRepo_iconCarrier"> <path d="M16,32A16,16,0,1,0,0,16,16,16,0,0,0,16,32ZM16,2A14,14,0,1,1,2,16,14,14,0,0,1,16,2Z"/> </g>
</svg>