<!DOCTYPE svg PUBLIC "-//W3C//DTD SVG 1.1//EN" "http://www.w3.org/Graphics/SVG/1.1/DTD/svg11.dtd">
<!-- Uploaded to: SVG Repo, www.svgrepo.com, Transformed by: SVG Repo Mixer Tools -->
<svg fill="#000000" width="800px" height="800px" viewBox="0 0 24 24" xmlns="http://www.w3.org/2000/svg">
<g id="SVGRepo_bgCarrier" stroke-width="0"/>
<g id="SVGRepo_tracerCarrier" stroke-linecap="round" stroke-linejoin="round" stroke="#fafafa" stroke-width="2.4">
<path d="M3,22H21a1,1,0,0,0,.895-1.447l-9-18a1.042,1.042,0,0,0-1.79,0l-9,18A1,1,0,0,0,3,22ZM12,5.236,19.382,20H4.618Z"/>
</g>
<g id="SVGRepo_iconCarrier">
<path d="M3,22H21a1,1,0,0,0,.895-1.447l-9-18a1.042,1.042,0,0,0-1.79,0l-9,18A1,1,0,0,0,3,22ZM12,5.236,19.382,20H4.618Z"/>
</g>
</svg>